<?xml version="1.0" encoding="UTF-8" standalone="no"?>
<!DOCTYPE svg PUBLIC "-//W3C//DTD SVG 1.1//EN" "http://www.w3.org/Graphics/SVG/1.1/DTD/svg11.dtd">
<!-- Created with Vectornator (http://vectornator.io/) -->
<svg height="100%" stroke-miterlimit="10" style="fill-rule:nonzero;clip-rule:evenodd;stroke-linecap:round;stroke-linejoin:round;" version="1.1" viewBox="0 0 12456 3000" width="100%" xml:space="preserve" xmlns="http://www.w3.org/2000/svg" xmlns:vectornator="http://vectornator.io" xmlns:xlink="http://www.w3.org/1999/xlink">
<defs>
<linearGradient gradientTransform="matrix(2189.2 -87.9363 1383.12 1912.96 5.11591e-13 543.103)" gradientUnits="userSpaceOnUse" id="LinearGradient" x1="0" x2="1" y1="0" y2="0">
<stop offset="0" stop-color="#000000"/>
<stop offset="1" stop-color="#000000"/>
</linearGradient>
</defs>
<clipPath id="ArtboardFrame">
<rect height="3000" width="12456" x="0" y="0"/>
</clipPath>
<g clip-path="url(#ArtboardFrame)" id="Layer-1" vectornator:layerName="Layer 1">
<g opacity="1" vectornator:layerName="Group 1">
<g opacity="1" vectornator:layerName="Group 1">
<path d="M0.161466 70C0.161466 31.3401 31.5015 0 70.1615 0L83.0363 0C560.358 0 947.114 331.831 947.114 753.729C947.114 753.729 950.426 778.746 924.586 803.94C914.054 814.209 907.549 817.259 881.149 824.797C789.545 850.953 689.93 821.849 425.445 912.348C302.499 954.417 201.958 1008.97 129.559 1055.3C93.863 1078.15 81.0162 1081 66.6257 1084.2C47.4158 1088.47 32.0695 1086.79 19.7231 1070.73C-3.10284 1041.03 0.161466 968.455 0.161466 968.455L0.161466 70Z" fill="url(#LinearGradient)" fill-rule="nonzero" opacity="1" stroke="none" vectornator:layerName="Rectangle 5"/>
<path d="M3906.91 897.586C3906.91 858.926 3938.25 827.586 3976.91 827.586L4124 827.586C4527.17 827.586 4854 1154.42 4854 1557.59L4854 2930C4854 2968.66 4822.66 3000 4784 3000L4636.91 3000C4233.74 3000 3906.91 2673.17 3906.91 2270L3906.91 897.586Z" fill="#000000" fill-rule="nonzero" opacity="1" stroke="none" vectornator:layerName="Rectangle 4"/>
<path d="M2604.66 897.586C2604.66 858.926 2636 827.586 2674.66 827.586L3481.75 827.586C3520.41 827.586 3551.75 858.926 3551.75 897.586L3551.75 2930C3551.75 2968.66 3520.41 3000 3481.75 3000L3334.66 3000C2931.49 3000 2604.66 2673.17 2604.66 2270L2604.66 897.586Z" fill="#000000" fill-rule="nonzero" opacity="1" stroke="none" vectornator:layerName="Rectangle 3"/>
<path d="M1302.41 70C1302.41 31.3401 1333.75 9.09495e-13 1372.41 9.09495e-13L2179.5 9.09495e-13C2218.16 9.09495e-13 2249.5 31.3401 2249.5 70L2249.5 2930C2249.5 2968.66 2218.16 3000 2179.5 3000L2032.41 3000C1629.24 3000 1302.41 2673.17 1302.41 2270L1302.41 70Z" fill="#000000" fill-rule="nonzero" opacity="1" stroke="none" vectornator:layerName="Rectangle 2"/>
<path d="M0.161457 1867.93C0.161457 1464.76 326.994 1137.93 730.161 1137.93L877.252 1137.93C915.912 1137.93 947.252 1169.27 947.252 1207.93L947.252 2930C947.252 2968.66 915.912 3000 877.252 3000L730.161 3000C326.994 3000 0.161457 2673.17 0.161457 2270L0.161457 1867.93Z" fill="#000000" fill-rule="nonzero" opacity="1" stroke="none" vectornator:layerName="Rectangle 1"/>
</g>
<g opacity="1" vectornator:layerName="Group 2">
<path d="M5940 1548.78C5940 1543.26 5944.48 1538.78 5950 1538.78L6128.9 1538.78C6134.43 1538.78 6138.9 1543.26 6138.9 1548.78L6138.9 2676.51C6138.9 2682.03 6134.43 2686.51 6128.9 2686.51L6019.36 2686.51C5975.53 2686.51 5940 2650.98 5940 2607.15L5940 1548.78ZM5940 1114.88C5940 1109.36 5944.48 1104.88 5950 1104.88L6059.55 1104.88C6103.38 1104.88 6138.9 1140.41 6138.9 1184.24L6138.9 1314.52C6138.9 1320.05 6134.43 1324.52 6128.9 1324.52L5950 1324.52C5944.48 1324.52 5940 1320.05 5940 1314.52L5940 1114.88Z" fill="#000000" fill-rule="nonzero" opacity="1" stroke="none"/>
<path d="M6558.45 2123.41C6558.45 2246.87 6584.9 2350.23 6637.79 2433.49C6690.69 2516.76 6775.47 2558.39 6892.13 2558.39C6982.7 2558.39 7057.16 2519.81 7115.49 2442.64C7173.82 2365.48 7202.98 2254.77 7202.98 2110.49C7202.98 1964.78 7172.91 1856.94 7112.77 1786.95C7052.63 1716.97 6978.36 1681.98 6889.96 1681.98C6791.41 1681.98 6711.52 1719.3 6650.29 1793.95C6589.06 1868.6 6558.45 1978.42 6558.45 2123.41ZM6853 1512.94C6942.13 1512.94 7016.76 1531.6 7076.9 1568.93C7111.68 1590.46 7151.18 1628.14 7195.38 1681.98L7195.38 1109.5C7195.38 1103.98 7199.85 1099.5 7205.38 1099.5L7373.41 1099.5C7378.93 1099.5 7383.41 1103.98 7383.41 1109.5L7383.41 2676.51C7383.41 2682.03 7378.93 2686.51 7373.41 2686.51L7217.33 2686.51C7211.81 2686.51 7207.33 2682.03 7207.33 2676.51L7207.33 2526.09C7161.68 2597.15 7107.7 2648.47 7045.38 2680.05C6983.07 2711.63 6911.69 2727.42 6831.26 2727.42C6701.56 2727.42 6589.25 2673.41 6494.32 2565.38C6399.4 2457.36 6351.94 2313.62 6351.94 2134.18C6351.94 1966.22 6395.23 1820.69 6481.82 1697.59C6568.41 1574.49 6692.14 1512.94 6853 1512.94Z" fill="#000000" fill-rule="nonzero" opacity="1" stroke="none"/>
<path d="M7672.53 1543.4C7672.53 1537.87 7677 1533.4 7682.53 1533.4L7848.39 1533.4C7853.91 1533.4 7858.39 1537.87 7858.39 1543.4L7858.39 1697.05C7913.46 1629.58 7971.79 1581.13 8033.38 1551.7C8094.97 1522.27 8163.45 1507.56 8238.81 1507.56C8404.02 1507.56 8515.6 1564.62 8573.57 1678.75C8605.46 1741.19 8621.4 1830.56 8621.4 1946.84L8621.4 2676.51C8621.4 2682.03 8616.92 2686.51 8611.4 2686.51L8501.85 2686.51C8458.02 2686.51 8422.49 2650.98 8422.49 2607.15L8422.49 1959.76C8422.49 1889.42 8411.99 1832.71 8390.97 1789.64C8356.19 1717.87 8293.15 1681.98 8201.85 1681.98C8155.48 1681.98 8117.43 1686.64 8087.73 1695.97C8034.11 1711.77 7987.01 1743.35 7946.43 1790.72C7913.82 1828.76 7892.63 1868.06 7882.84 1908.62C7873.06 1949.17 7868.17 2007.13 7868.17 2082.5L7868.17 2676.51C7868.17 2682.03 7863.69 2686.51 7858.17 2686.51L7750.42 2686.51C7707.4 2686.51 7672.53 2651.64 7672.53 2608.62L7672.53 1543.4Z" fill="#000000" fill-rule="nonzero" opacity="1" stroke="none"/>
<path d="M9372.45 2561.62C9502.15 2561.62 9591.1 2512.99 9639.28 2415.73C9687.47 2318.47 9711.56 2210.26 9711.56 2091.11C9711.56 1983.45 9694.17 1895.88 9659.39 1828.4C9604.32 1722.17 9509.4 1669.06 9374.62 1669.06C9255.06 1669.06 9168.11 1714.28 9113.76 1804.72C9059.42 1895.16 9032.25 2004.26 9032.25 2132.03C9032.25 2254.77 9059.42 2357.05 9113.76 2438.88C9168.11 2520.7 9254.34 2561.62 9372.45 2561.62ZM9380.06 1500.02C9530.05 1500.02 9656.86 1549.55 9760.47 1648.6C9864.09 1747.65 9915.9 1893.36 9915.9 2085.73C9915.9 2271.63 9870.25 2425.24 9778.95 2546.54C9687.65 2667.85 9545.99 2728.5 9353.97 2728.5C9193.83 2728.5 9066.67 2674.85 8972.47 2567.54C8878.27 2460.23 8831.17 2316.14 8831.17 2135.26C8831.17 1941.46 8880.8 1787.13 8980.08 1672.29C9079.35 1557.44 9212.67 1500.02 9380.06 1500.02Z" fill="#000000" fill-rule="nonzero" opacity="1" stroke="none"/>
<path d="M10153.9 1543.4C10153.9 1537.87 10158.4 1533.4 10163.9 1533.4L10329.8 1533.4C10335.3 1533.4 10339.8 1537.87 10339.8 1543.4L10339.8 1732.58C10355 1693.82 10392.3 1646.63 10451.7 1591C10511.2 1535.37 10579.6 1507.56 10657.2 1507.56C10660.8 1507.56 10667 1507.92 10675.6 1508.63C10684.3 1509.35 10699.2 1510.79 10720.2 1512.94L10720.2 1717.51C10708.6 1715.35 10697.9 1713.92 10688.1 1713.2C10678.4 1712.48 10667.7 1712.12 10656.1 1712.12C10557.5 1712.12 10481.8 1743.53 10428.9 1806.33C10376 1869.14 10349.6 1941.46 10349.6 2023.28L10349.6 2676.51C10349.6 2682.03 10345.1 2686.51 10339.6 2686.51L10231.8 2686.51C10188.8 2686.51 10153.9 2651.64 10153.9 2608.62L10153.9 1543.4Z" fill="#000000" fill-rule="nonzero" opacity="1" stroke="none"/>
<path d="M10889.8 1543.4C10889.8 1537.87 10894.2 1533.4 10899.8 1533.4L11073.2 1533.4C11078.8 1533.4 11083.2 1537.87 11083.2 1543.4L11083.2 1697.05C11129.6 1640.35 11171.6 1599.07 11209.3 1573.23C11273.8 1529.45 11347 1507.56 11428.9 1507.56C11521.6 1507.56 11596.3 1530.17 11652.8 1575.39C11684.7 1601.23 11713.6 1639.27 11739.7 1689.51C11783.2 1627.79 11834.3 1582.03 11893 1552.24C11951.7 1522.45 12017.6 1507.56 12090.8 1507.56C12247.3 1507.56 12353.8 1563.54 12410.3 1675.52C12440.8 1735.81 12456 1816.92 12456 1918.85L12456 2676.51C12456 2682.03 12451.5 2686.51 12446 2686.51L12334.1 2686.51C12289.2 2686.51 12252.7 2650.11 12252.7 2605.2L12252.7 1885.47C12252.7 1808.67 12233.4 1755.91 12194.6 1727.2C12155.8 1698.49 12108.6 1684.13 12052.8 1684.13C11975.9 1684.13 11909.8 1709.61 11854.4 1760.57C11799 1811.54 11771.2 1896.59 11771.2 2015.75L11771.2 2676.51C11771.2 2682.03 11766.8 2686.51 11761.2 2686.51L11651.7 2686.51C11607.9 2686.51 11572.3 2650.98 11572.3 2607.15L11572.3 1933.92C11572.3 1855.68 11562.9 1798.62 11544.1 1762.73C11514.4 1708.89 11458.9 1681.98 11377.8 1681.98C11303.9 1681.98 11236.7 1710.33 11176.2 1767.03C11115.7 1823.74 11085.4 1926.38 11085.4 2074.96L11085.4 2676.51C11085.4 2682.03 11080.9 2686.51 11075.4 2686.51L10967.7 2686.51C10924.6 2686.51 10889.8 2651.64 10889.8 2608.62L10889.8 1543.4Z" fill="#000000" fill-rule="nonzero" opacity="1" stroke="none"/>
</g>
</g>
</g>
</svg>
